
<svg xmlns="http://www.w3.org/2000/svg" xmlns:xlink="http://www.w3.org/1999/xlink" version="1.1" width="3162.1621621621625" 
height="972.972972972973" viewBox="0 0 3162.1621621621625 972.972972972973">
	<g transform="scale(8.108108108108109) translate(10, 10)">
		<defs id="SvgjsDefs9495"><linearGradient id="SvgjsLinearGradient9502"><stop id="SvgjsStop9503" stop-color="#834f2a" offset="0"></stop><stop id="SvgjsStop9504" stop-color="#dba173" offset="0.5"></stop><stop id="SvgjsStop9505" stop-color=" #834F2A" offset="1"></stop></linearGradient></defs><g id="SvgjsG9496" featureKey="YvLwfh-0" transform="matrix(2.0833333333333335,0,0,2.0833333333333335,0,0)" fill="url(#SvgjsLinearGradient9502)"><g xmlns="http://www.w3.org/2000/svg"><path d="M36,10.5L23.7,22.8c-0.4,0.4-0.4,1.1,0,1.5c0.4,0.4,1.1,0.4,1.5,0L37.5,12l3.7,0.5L48,5.7L43,5l-0.7-5l-6.9,6.9L36,10.5z"></path><path d="M42,14.5c1.5,2.8,2.4,6,2.4,9.5c0,11.2-9.1,20.3-20.3,20.3C12.8,44.3,3.7,35.2,3.7,24C3.7,12.8,12.8,3.7,24,3.7   c3.4,0,6.6,0.8,9.5,2.3l2.7-2.7C32.6,1.2,28.4,0,24,0C10.8,0,0,10.8,0,24c0,13.2,10.8,24,24,24c13.2,0,24-10.8,24-24   c0-4.4-1.2-8.6-3.3-12.2L42,14.5z"></path><path d="M33.4,10.3c-2.7-1.9-5.9-2.9-9.4-2.9C14.8,7.4,7.4,14.8,7.4,24c0,9.2,7.4,16.6,16.6,16.6S40.6,33.2,40.6,24   c0-3.5-1.1-6.7-2.9-9.4L35,17.3c1.2,2,1.9,4.3,1.9,6.7c0,7.1-5.8,12.9-12.9,12.9c-7.1,0-12.9-5.8-12.9-12.9   c0-7.1,5.8-12.9,12.9-12.9c2.5,0,4.8,0.7,6.7,1.9L33.4,10.3z"></path><path d="M24,18.5c0.4,0,0.8,0,1.1,0.1l2.9-2.9c-1.2-0.6-2.6-0.9-4-0.9c-5.1,0-9.2,4.1-9.2,9.2s4.1,9.2,9.2,9.2s9.2-4.1,9.2-9.2   c0-1.4-0.3-2.8-0.9-4l-2.9,2.9c0,0,0,0,0,0c0.1,0.4,0.1,0.7,0.1,1.1c0,3.1-2.5,5.5-5.5,5.5c-3.1,0-5.5-2.5-5.5-5.5   C18.5,20.9,20.9,18.5,24,18.5z"></path></g></g><g id="SvgjsG9497" featureKey="nameFeature-0" transform="matrix(2.3249380469427754,0,0,2.3249380469427754,119.614527269101,4.763404144446142)" fill="#ffffff"><path d="M12.412 5.888999999999999 l-4.6387 7.3535 l0 6.7578 l-2.9395 0 l0 -6.6895 l-4.668 -7.4219 l3.2422 0 l2.8809 4.8047 l2.8906 -4.8047 l3.2324 0 z M23.838359375 20 l-1.0254 -2.9102 l-5.9277 0 l-1.0254 2.9102 l-2.998 0 l5.1953 -14.111 l3.584 0 l5.1953 14.111 l-2.998 0 z M17.744159375 14.6387 l4.209 0 l-2.0996 -5.9863 z M35.20510625 20.19531 c-4.1504 0 -7.2168 -2.8223 -7.2168 -7.2559 s3.0664 -7.2461 7.2168 -7.2461 c3.1445 0 5.6641 1.6113 6.6699 4.2871 l-2.7344 0.99609 c-0.625 -1.6406 -2.1191 -2.5879 -3.9355 -2.5879 c-2.4316 0 -4.2969 1.6992 -4.2969 4.5508 s1.8652 4.5605 4.2969 4.5605 c1.8164 0 3.3105 -0.95703 3.9355 -2.5977 l2.7344 0.99609 c-1.0059 2.6758 -3.5254 4.2969 -6.6699 4.2969 z M52.461171875 5.888999999999999 l0 2.5781 l-3.3496 0 l0 11.533 l-2.9004 0 l0 -11.533 l-3.3691 0 l0 -2.5781 l9.6191 0 z M60.9277625 20.19531 c-4.1504 0 -7.2168 -2.832 -7.2168 -7.2559 c0 -4.4336 3.0664 -7.2461 7.2168 -7.2461 c4.1406 0 7.207 2.8125 7.207 7.2461 c0 4.4238 -3.0664 7.2559 -7.207 7.2559 z M60.9277625 17.5098 c2.4316 0 4.2969 -1.709 4.2969 -4.5703 c0 -2.8516 -1.8652 -4.5508 -4.2969 -4.5508 s-4.2969 1.6992 -4.2969 4.5508 c0 2.8613 1.8652 4.5703 4.2969 4.5703 z M76.05470625 20.19531 c-3.0957 0 -5.5176 -1.582 -5.5176 -5.1367 l0 -9.1699 l2.9297 0 l0 8.7695 c0 2.1484 1.1426 2.9492 2.5879 2.9492 c1.4551 0 2.6074 -0.81055 2.6074 -2.9492 l0 -8.7695 l2.9297 0 l0 9.1699 c0 3.5547 -2.4316 5.1367 -5.5371 5.1367 z M94.395 20 l-1.0254 -2.9102 l-5.9277 0 l-1.0254 2.9102 l-2.998 0 l5.1953 -14.111 l3.584 0 l5.1953 14.111 l-2.998 0 z M88.3008 14.6387 l4.209 0 l-2.0996 -5.9863 z M107.695546875 5.888999999999999 l0 2.5781 l-3.3496 0 l0 11.533 l-2.9004 0 l0 -11.533 l-3.3691 0 l0 -2.5781 l9.6191 0 z"></path></g><g id="SvgjsG9498" featureKey="zdvuGz-0" transform="matrix(0.6811287347443419,0,0,0.6811287347443419,118.75619057947908,68.12216370879668)" fill="#ffffff"><path d="M7.6953 5.888999999999999 c2.7637 0 4.4824 2.0508 4.4824 4.5605 c0 2.5684 -1.7188 4.4922 -4.4824 4.4922 l-2.9395 0 l0 5.0586 l-2.9297 0 l0 -14.111 l5.8691 0 z M7.207 12.4902 c1.4648 0 2.1484 -0.81055 2.1484 -2.0801 c0 -1.2207 -0.68359 -2.0703 -2.1484 -2.0703 l-2.4512 0 l0 4.1504 l2.4512 0 z M31.22798359375 20 l-3.6719 -6.2109 l-0.84961 0 l0 6.2109 l-2.9297 0 l0 -14.111 l5.1172 0 c3.1934 0 4.541 1.8848 4.541 4.2188 c0 1.8945 -1.0742 3.125 -2.9883 3.5352 l4.248 6.3574 l-3.4668 0 z M26.70658359375 8.32 l0 3.3691 l1.7285 0 c1.5625 0 2.1973 -0.66406 2.1973 -1.6797 c0 -1.0059 -0.63477 -1.6895 -2.1973 -1.6895 l-1.7285 0 z M52.2314734375 20.19531 c-4.1504 0 -7.2168 -2.832 -7.2168 -7.2559 c0 -4.4336 3.0664 -7.2461 7.2168 -7.2461 c4.1406 0 7.207 2.8125 7.207 7.2461 c0 4.4238 -3.0664 7.2559 -7.207 7.2559 z M52.2314734375 17.5098 c2.4316 0 4.2969 -1.709 4.2969 -4.5703 c0 -2.8516 -1.8652 -4.5508 -4.2969 -4.5508 s-4.2969 1.6992 -4.2969 4.5508 c0 2.8613 1.8652 4.5703 4.2969 4.5703 z M78.85010078125 12.5488 c1.5918 0.43945 2.6563 1.4844 2.6563 3.4961 c0 2.3828 -1.4453 3.9551 -4.4238 3.9551 l-5.8105 0 l0 -14.111 l4.5703 0 c3.0469 0 4.6484 1.4648 4.6484 3.8672 c0 1.2402 -0.53711 2.2559 -1.6406 2.793 z M75.87160078125 8.32 l-1.7773 0 l0 3.3203 l1.9043 0 c1.25 0 1.7969 -0.74219 1.7969 -1.6992 c0 -0.9375 -0.61523 -1.6211 -1.9238 -1.6211 z M76.53560078125 17.4902 c1.582 0 2.1289 -0.84961 2.1289 -1.7676 c0 -0.9375 -0.53711 -1.8262 -2.1875 -1.8262 l-2.3828 0 l0 3.5938 l2.4414 0 z M96.18168125 17.4121 l4.4238 0 l0 2.5879 l-7.3535 0 l0 -14.111 l2.9297 0 l0 11.523 z M120.16380859375 8.467 l-5.2344 0 l0 3.2031 l4.6387 0 l0 2.5488 l-4.6387 0 l0 3.1934 l5.2344 0 l0 2.5879 l-8.1836 0 l0 -14.111 l8.1836 0 l0 2.5781 z M148.4911640625 20 l-2.9199 0 l-0.92773 -10.635 l-3.5742 10.635 l-1.8945 0 l-3.5742 -10.635 l-0.9375 10.635 l-2.9297 0 l1.1816 -14.111 l4.1797 0 l3.0078 8.8574 l3.0469 -8.8574 l4.1797 0 z M179.716825 20.19531 c-3.0273 0 -5.3906 -1.4551 -5.8203 -4.1016 l3.0273 -0.69336 c0.19531 1.582 1.3574 2.4023 2.9102 2.4023 c1.1914 0 2.1387 -0.52734 2.1289 -1.7188 c-0.0097656 -1.3281 -1.5723 -1.748 -3.291 -2.2754 c-2.0703 -0.64453 -4.2871 -1.4063 -4.2871 -4.0039 c0 -2.627 2.1484 -4.1113 4.9805 -4.1113 c2.4805 0 4.9805 1.0059 5.5469 3.7109 l-2.832 0.70313 c-0.26367 -1.4063 -1.2109 -2.0215 -2.5391 -2.0215 c-1.1816 0 -2.1875 0.48828 -2.1875 1.6504 c0 1.084 1.3867 1.4453 2.9883 1.9238 c2.1289 0.64453 4.6484 1.4648 4.6484 4.2773 c0 2.998 -2.5098 4.2578 -5.2734 4.2578 z M203.08352421875 20.19531 c-4.1504 0 -7.2168 -2.832 -7.2168 -7.2559 c0 -4.4336 3.0664 -7.2461 7.2168 -7.2461 c4.1406 0 7.207 2.8125 7.207 7.2461 c0 4.4238 -3.0664 7.2559 -7.207 7.2559 z M203.08352421875 17.5098 c2.4316 0 4.2969 -1.709 4.2969 -4.5703 c0 -2.8516 -1.8652 -4.5508 -4.2969 -4.5508 s-4.2969 1.6992 -4.2969 4.5508 c0 2.8613 1.8652 4.5703 4.2969 4.5703 z M225.0537515625 17.4121 l4.4238 0 l0 2.5879 l-7.3535 0 l0 -14.111 l2.9297 0 l0 11.523 z M249.82687890625 5.888999999999999 l3.1152 0 l-5.2148 14.111 l-3.2227 0 l-5.1855 -14.111 l3.1055 0 l3.7012 10.693 z M272.383046875 8.467 l-5.2344 0 l0 3.2031 l4.6387 0 l0 2.5488 l-4.6387 0 l0 3.1934 l5.2344 0 l0 2.5879 l-8.1836 0 l0 -14.111 l8.1836 0 l0 2.5781 z M291.98970234375 20 l-3.6719 -6.2109 l-0.84961 0 l0 6.2109 l-2.9297 0 l0 -14.111 l5.1172 0 c3.1934 0 4.541 1.8848 4.541 4.2188 c0 1.8945 -1.0742 3.125 -2.9883 3.5352 l4.248 6.3574 l-3.4668 0 z M287.46830234375 8.32 l0 3.3691 l1.7285 0 c1.5625 0 2.1973 -0.66406 2.1973 -1.6797 c0 -1.0059 -0.63477 -1.6895 -2.1973 -1.6895 l-1.7285 0 z"></path></g>
	</g>
</svg>
